<svg xmlns="http://www.w3.org/2000/svg" width="24" height="24" viewBox="0 0 24 24"><path d="M0,0H24V24H0Z" fill="#21262c" opacity="0"/><path d="M19,20H5v1a1,1,0,0,1-1,1H3a1,1,0,0,1-1-1V13.5L.757,13.19A1,1,0,0,1,0,12.22V11.5A.5.5,0,0,1,.5,11H2L4.48,5.212A2,2,0,0,1,6.32,4H17.68a2,2,0,0,1,1.838,1.212L22,11h1.5a.5.5,0,0,1,.5.5v.72a1,1,0,0,1-.757.97L22,13.5V21a1,1,0,0,1-1,1H20a1,1,0,0,1-1-1Zm1-2V13H4v5ZM5.477,11H18.523a1,1,0,0,0,.928-1.371L18,6H6L4.549,9.629A1,1,0,0,0,5.477,11ZM5,14q3.475,0,4.686,2.264A.5.5,0,0,1,9.245,17H6a1,1,0,0,1-1-1Zm14,0v2a1,1,0,0,1-1,1H14.755a.5.5,0,0,1-.44-.736Q15.522,14,19,14Z" fill="#21262c"/></svg>