<svg xmlns="http://www.w3.org/2000/svg" width="24" height="24" viewBox="0 0 24 24"><path d="M0,0H24V24H0Z" fill="#21262c" opacity="0"/><path d="M22,13.5V21a1,1,0,0,1-1,1H20a1,1,0,0,1-1-1V20H5v1a1,1,0,0,1-1,1H3a1,1,0,0,1-1-1V13.5L.757,13.19A1,1,0,0,1,0,12.22V11.5A.5.5,0,0,1,.5,11H2.375L4.513,5.3A2,2,0,0,1,6.386,4H17.614a2,2,0,0,1,1.873,1.3L21.625,11H23.5a.5.5,0,0,1,.5.5v.72a1,1,0,0,1-.757.97ZM4,15v2a1,1,0,0,0,1,1H8.245a.5.5,0,0,0,.44-.736Q7.478,15,4,15Zm16,0q-3.475,0-4.686,2.264a.5.5,0,0,0,.441.736H19a1,1,0,0,0,1-1ZM6,6,4.439,10.684A1,1,0,0,0,5.387,12H18.613a1,1,0,0,0,.948-1.316L18,6Z" fill="#21262c"/></svg>