<svg xmlns="http://www.w3.org/2000/svg" xmlns:xlink="http://www.w3.org/1999/xlink" width="32" height="32" viewBox="0 0 32 32">
  <defs>
    <linearGradient id="linear-gradient" x1="0.88" y1="0.96" x2="0.087" y2="0.036" gradientUnits="objectBoundingBox">
      <stop offset="0" stop-color="#009edb"/>
      <stop offset="1" stop-color="#005baa"/>
    </linearGradient>
  </defs>
  <g id="flower_favicon" data-name="flower favicon" transform="translate(4 4.166)">
    <rect id="Rectangle_11084" data-name="Rectangle 11084" width="32" height="32" rx="8" transform="translate(-4 -4.166)" fill="url(#linear-gradient)"/>
    <path id="Path_82771" data-name="Path 82771" d="M11290.808,21258.492c-1-.031-2-.059-3-.031l-1.5.031-.747.012a2.92,2.92,0,0,1-.88-.1,2.659,2.659,0,0,1-1.473-1.062,3.138,3.138,0,0,1-.384-.8l-.235-.711-.955-2.844-1.724-5.244a1.288,1.288,0,0,1-.261-.1,1.252,1.252,0,0,1,.6-2.352l.846.008a7.381,7.381,0,0,1,.365-3.045,11.366,11.366,0,0,1,2.049-3.766,9.813,9.813,0,0,1,15.264-.012,10.553,10.553,0,0,1,2.012,3.783,6.9,6.9,0,0,1,.383,3.188l.492.02.395.021a.988.988,0,0,1,.442.139,1.054,1.054,0,0,1,.5.73,1.07,1.07,0,0,1-.235.826,1,1,0,0,1-.636.34l-.879,2.686c-.315,1-.6,2.018-.881,3.031s-.6,2.01-.966,3l-.133.367a2.611,2.611,0,0,1-.79,1.121,2.567,2.567,0,0,1-1.67.6c-1,.006-2,.064-3,.129-.646.031-1.293.051-1.941.051C11291.513,21258.512,11291.16,21258.506,11290.808,21258.492Zm3-.9c1,.064,2,.123,3,.135a1.716,1.716,0,0,0,1.574-1.051,1.584,1.584,0,0,0,.1-.311l.1-.379q.393-1.535.891-3.029c.337-1,.673-2,.972-3l.688-2.4-.511.012c-.56.027-1.117.061-1.677.084-.06.006-.12.01-.181.014a1.954,1.954,0,0,1-1.457.707,2,2,0,0,1-1.558-.693l-2.942.068a2.261,2.261,0,0,1-.739.033c-.03,0-.062-.008-.093-.014l-.846.02c-.172,0-.344,0-.516.008a1.625,1.625,0,0,1-.279.082,2.3,2.3,0,0,1-1.047-.064q-.951.012-1.9.018a1.931,1.931,0,0,1-.881.246,1.961,1.961,0,0,1-1.677,1.033,2.014,2.014,0,0,1-1.715-.9,2.108,2.108,0,0,1-1.156-.383c-.16,0-.321,0-.481,0l1.367,4.785.806,2.893.2.719a1.833,1.833,0,0,0,.224.555,1.64,1.64,0,0,0,.892.689,1.738,1.738,0,0,0,.6.086l.747.016,1.5.025c1,.027,2,0,3-.031.353-.014.705-.02,1.057-.02C11292.513,21257.545,11293.159,21257.564,11293.806,21257.6Zm-8.984-9.576a.889.889,0,0,0,.589-.178c-.356,0-.713,0-1.069,0A.858.858,0,0,0,11284.821,21248.02Zm10.718-2.582,1.531.016,1.531-.025,1.331-.02a.622.622,0,0,0-.013-.072,1.308,1.308,0,0,0-.267-.518l-.027-.037a.487.487,0,0,1,.027-.641,1.43,1.43,0,0,0,.33-.512c0-.012.009-.025.013-.037-.034-.238-.07-.475-.112-.713a.829.829,0,0,0-.509-.291,1.531,1.531,0,0,0-.607.027.507.507,0,0,1-.582-.33l0-.012a1.187,1.187,0,0,0-.3-.512.87.87,0,0,0-.576-.187.959.959,0,0,0-.891.693.465.465,0,0,1-.522.348l-.054-.01c-.021,0-.043-.008-.063-.01a2.517,2.517,0,0,1-.022.527,1.816,1.816,0,0,1-.589,1.162.589.589,0,0,1-.115.586l-.016.018h0a1.378,1.378,0,0,1,.072.543Zm-3.057-.037,1.106.014a2.069,2.069,0,0,1,.252-.945,2.017,2.017,0,0,1,.071-1.943,1.931,1.931,0,0,1,.833-.75,1.807,1.807,0,0,0-.684-.793c-.336-.182-.565-.08-.9.225a.374.374,0,0,1-.518-.021.385.385,0,0,1-.069-.373l.011-.021c.182-.486.16-.721-.171-.971a2,2,0,0,0-1.227-.332,2.048,2.048,0,0,0-1.189.379.58.58,0,0,0-.24.336.912.912,0,0,0,.106.438.558.558,0,0,1-.293.732.572.572,0,0,1-.55-.061l-.032-.025a1.157,1.157,0,0,0-.224-.129.223.223,0,0,0-.123-.016.667.667,0,0,0-.353.16,2.031,2.031,0,0,0-.624.977,2.38,2.38,0,0,0-.1.553,2.647,2.647,0,0,1,.422.551,2.832,2.832,0,0,1,.162.338l.089,0h.059a.6.6,0,0,1,.272,1.115,1.481,1.481,0,0,0-.245.166.51.51,0,0,0-.1.105.4.4,0,0,0-.036.178c.012.023.022.047.033.072Zm-5.426-.051c0-.006,0-.012,0-.018a.493.493,0,0,1,0-.25,1.6,1.6,0,0,1,.087-.395,1.717,1.717,0,0,1-.676-.867,2.7,2.7,0,0,1-.121-.484c-.021,0-.04.006-.061.01a.5.5,0,0,1-.581-.324l-.006-.012a1.122,1.122,0,0,0-.3-.512.815.815,0,0,0-.576-.187.954.954,0,0,0-.892.693.452.452,0,0,1-.522.342l-.054-.01a.919.919,0,0,0-.955.48.863.863,0,0,0,.149.986.592.592,0,0,1,.155.508l1.649.016a.86.86,0,0,1-.006-.1.772.772,0,0,1,.773-.773.727.727,0,0,1,.544.229.761.761,0,0,1,.221.66Zm7.821-2.27a.857.857,0,0,0,.007.791,1.168,1.168,0,0,0,.217-.791,2.465,2.465,0,0,0-.022-.256A.838.838,0,0,0,11294.878,21243.08Zm-10.548-3.885a7.738,7.738,0,0,0-1.818,3.219,1.891,1.891,0,0,1,.658-.1,1.915,1.915,0,0,1,1.651-.908,2.045,2.045,0,0,1,1.1.367,1.84,1.84,0,0,1,.48.441c.025-.109.056-.215.09-.318a3.2,3.2,0,0,1,1.072-1.553,1.778,1.778,0,0,1,1.067-.385l.067,0a.186.186,0,0,0,.007-.027,1.63,1.63,0,0,1,.684-.908,3,3,0,0,1,1.813-.463,2.931,2.931,0,0,1,1.729.629,1.425,1.425,0,0,1,.528.924c0,.039,0,.076,0,.113a1.45,1.45,0,0,1,.9.143,2.627,2.627,0,0,1,1.12,1.184l.012.025c.05,0,.1,0,.149,0a1.9,1.9,0,0,1,1.647-.908,2.078,2.078,0,0,1,1.11.367,1.814,1.814,0,0,1,.556.555,1.579,1.579,0,0,1,.586.15,8.627,8.627,0,0,0-1.622-2.539,9.25,9.25,0,0,0-6.792-2.967h-.056A9.232,9.232,0,0,0,11284.33,21239.2Zm11.358,16.086a.465.465,0,0,1-.389-.523l.778-5.383a.479.479,0,0,1,.182-.3.474.474,0,0,1,.342-.09.459.459,0,0,1,.389.527l-.778,5.379a.461.461,0,0,1-.459.395Zm-9.2,0a.46.46,0,0,1-.453-.395l-.784-5.379a.458.458,0,0,1,.73-.437.435.435,0,0,1,.182.3l.784,5.389a.466.466,0,0,1-.39.523Zm6.157-.053a.459.459,0,0,1-.437-.486l.262-5.383a.459.459,0,1,1,.917.047l-.261,5.385a.459.459,0,0,1-.459.438Zm-3.067,0a.46.46,0,0,1-.459-.443l-.262-5.379a.456.456,0,0,1,.438-.484h.021a.466.466,0,0,1,.464.438l.256,5.383a.459.459,0,0,1-.117.336.477.477,0,0,1-.32.15Zm7.475-10.191a.773.773,0,1,1,1.093-1.094.771.771,0,0,1-.544,1.318A.747.747,0,0,1,11297.05,21245.037Zm-6.222-.928a.987.987,0,0,1-.3-.2.952.952,0,0,1-.2-.3,1,1,0,0,1-.069-.357,1.061,1.061,0,0,1,.069-.357.994.994,0,0,1,.2-.3.966.966,0,0,1,.3-.207,1.039,1.039,0,0,1,.357-.07.979.979,0,0,1,.357.07.853.853,0,0,1,.3.207.88.88,0,0,1,.2.3.924.924,0,0,1,.075.357.875.875,0,0,1-.075.357.85.85,0,0,1-.2.3.869.869,0,0,1-.3.2.907.907,0,0,1-.357.074A.96.96,0,0,1,11290.828,21244.109Z" transform="translate(-11279 -21234.834)" fill="#fff"/>
  </g>
</svg>
