<svg xmlns="http://www.w3.org/2000/svg" width="16" height="16" viewBox="0 0 16 16"><path d="M0,0H16V16H0Z" fill="#21262c" opacity="0"/><path d="M4.555,3.2A2.333,2.333,0,0,1,7.536,6.186l7.23,7.23L13.351,14.83,6.121,7.6A2.333,2.333,0,0,1,3.14,4.618L4.631,6.109A1,1,0,1,0,6.045,4.7L4.554,3.2Zm6.911,1.256L13.587,3.28l.943.943L13.351,6.344l-1.179.236L10.759,7.994l-.943-.943L11.23,5.638l.236-1.179ZM6.752,9.644l1.414,1.415-3.3,3.3a1,1,0,0,1-1.478-1.343l.065-.071,3.3-3.3Z" transform="translate(-1.001 -1.022)" fill="#21262c"/></svg>